<svg width="20" height="16" viewBox="0 0 20 16" fill="none" xmlns="http://www.w3.org/2000/svg">
<path d="M20 1.84071C19.2908 2.12389 18.4397 2.40708 17.7305 2.54867C18.5816 1.9823 19.1489 1.27434 19.5745 0.283186C18.7234 0.707965 17.8723 1.13274 17.0213 1.27434C16.3121 0.424779 15.1773 0 14.0426 0C11.6312 0 9.78723 1.69911 9.78723 3.9646C9.78723 4.24779 9.78723 4.53097 9.92908 4.95575C6.52482 4.81416 3.5461 3.11504 1.56028 0.707965C1.13475 1.27434 0.992908 1.9823 0.992908 2.69027C0.992908 4.10619 1.70213 5.38053 2.83688 6.0885C2.12766 6.0885 1.56028 5.9469 0.992908 5.52212C0.992908 7.50442 2.41135 9.06195 4.25532 9.48673C3.82979 9.76991 3.5461 9.76991 3.12057 9.76991C2.83688 9.76991 2.55319 9.76991 2.41135 9.62832C2.83688 11.3274 4.39716 12.4602 6.09929 12.4602C4.68085 13.5929 2.97872 14.1593 0.992908 14.1593C0.70922 14.1593 0.283688 14.1593 0 14.1593C1.84397 15.292 3.97163 16 6.24113 16C13.7589 16 17.7305 9.76991 17.7305 4.53097V3.9646C18.7234 3.39823 19.4326 2.69027 20 1.84071Z" fill="white"/>
</svg>
