<svg width="18" height="19" viewBox="0 0 18 19" fill="none" xmlns="http://www.w3.org/2000/svg">
<path d="M17.9954 18.0011L17.9999 18.0004V11.3989C17.9999 8.16939 17.3047 5.68164 13.5292 5.68164C11.7142 5.68164 10.4962 6.67764 9.99895 7.62189H9.94645V5.98314H6.3667V18.0004H10.0942V12.0499C10.0942 10.4831 10.3912 8.96814 12.3314 8.96814C14.2432 8.96814 14.2717 10.7561 14.2717 12.1504V18.0011H17.9954Z" fill="white"/>
<path d="M0.296875 5.98242H4.02888V17.9997H0.296875V5.98242Z" fill="white"/>
<path d="M2.1615 0C0.96825 0 0 0.96825 0 2.1615C0 3.35475 0.96825 4.34325 2.1615 4.34325C3.35475 4.34325 4.323 3.35475 4.323 2.1615C4.32225 0.96825 3.354 0 2.1615 0Z" fill="white"/>
</svg>
