<svg width="18" height="18" viewBox="0 0 18 18" fill="none" xmlns="http://www.w3.org/2000/svg">
<path d="M11.6275 10.0883C12.2287 8.63703 11.5395 6.97326 10.0883 6.37212C8.63706 5.77099 6.97328 6.46013 6.37214 7.91137C5.77101 9.3626 6.46015 11.0264 7.91139 11.6275C9.36263 12.2286 11.0264 11.5395 11.6275 10.0883Z" fill="white"/>
<path d="M12.6387 0H5.36133C2.40469 0 0 2.40469 0 5.36133V12.6352C0 15.5953 2.40469 18 5.36133 18H12.6352C15.5918 18 17.9965 15.5953 17.9965 12.6387V5.36133C18 2.40469 15.5953 0 12.6387 0ZM9 13.6547C6.43359 13.6547 4.34531 11.5664 4.34531 9C4.34531 6.43359 6.43359 4.34531 9 4.34531C11.5664 4.34531 13.6547 6.43359 13.6547 9C13.6547 11.5664 11.5664 13.6547 9 13.6547ZM13.6652 5.49492C13.05 5.49492 12.5508 4.9957 12.5508 4.38047C12.5508 3.76523 13.05 3.26602 13.6652 3.26602C14.2805 3.26602 14.7797 3.76523 14.7797 4.38047C14.7797 4.9957 14.2805 5.49492 13.6652 5.49492Z" fill="white"/>
</svg>
